# xmcd CD database file
#
# Track frame offsets:
#	150
#	15097
#	26499
#	40824
#	53806
#	68433
#	84213
#	101912
#	117767
#	135417
#	149069
#	165345
#	181832
#	194771
#
# Disc length: 2785 seconds
#
# Revision: 1
# Processed by: cddbd v1.4PL0 Copyright (c) Steve Scherf et al.
# Submitted via: CDex 1.50
#
DISCID=ad0adf0e
DTITLE=Ruan e Rafael - Indiferença
DYEAR=2003
DGENRE=Country
TTITLE0=Vai
TTITLE1=Tem Gente Batendo o Pé
TTITLE2=Tum Tum Do Coração
TTITLE3=Levanta Pó
TTITLE4=Tá Pegando Fogo
TTITLE5=Lombo Da Paixão
TTITLE6=Você Faz Falta
TTITLE7=Sua Indiferença
TTITLE8=Saudade Do Cantador
TTITLE9=Quando Bate A Saudade
TTITLE10=Cai A Noite
TTITLE11=Solidão de Amigos
TTITLE12=É Amor
TTITLE13=Despedida De Solteiro
EXTD=YEAR: 2003
EXTT0=
EXTT1=
EXTT2=
EXTT3=
EXTT4=
EXTT5=
EXTT6=
EXTT7=
EXTT8=
EXTT9=
EXTT10=
EXTT11=
EXTT12=
EXTT13=
PLAYORDER=
